# xmcd
#
# Track frame offsets: 
#        183
#        8758
#        39355
#        47803
#        68538
#        92853
#        105578
#        117743
#        137465
#        149470
#        180303
#        204045
#        216370
#        230248
#        241985
#        252443
#        269895
#
# Disc length: 3923 seconds
#
# Revision: 2
# Processed by: cddbd v1.5.2PL0 Copyright (c) Steve Scherf et al.
# Submitted via: ExactAudioCopy v0.95b4
#
DISCID=f80f5111
DTITLE=Domino, Fats - Antonie 'Fats' Domino - CD 2
DYEAR=1989
DGENRE=Blues
TTITLE0=Be my guest
TTITLE1=So long
TTITLE2=C.C. rider
TTITLE3=Tuxedo junction
TTITLE4=Misty
TTITLE5=Red sails in the sunset
TTITLE6=Blue monday
TTITLE7=Rosalie
TTITLE8=I wanna walk you home
TTITLE9=Four winds
TTITLE10=Another mule
TTITLE11=Valley of tears
TTITLE12=Poor me
TTITLE13=Blueberry hill
TTITLE14=Goin' to the Mardi Gras
TTITLE15=When the saints go marching in
TTITLE16=Sentimental journey
EXTD=TOMATO a trade name of the Music Works, New York,  CD 2696 632. R
EXTD=ecorded live in Galvestone and Huoston, Texas.
EXTT0=
EXTT1=
EXTT2=
EXTT3=
EXTT4=
EXTT5=
EXTT6=
EXTT7=
EXTT8=
EXTT9=
EXTT10=
EXTT11=
EXTT12=
EXTT13=
EXTT14=
EXTT15=
EXTT16=
PLAYORDER=
